<svg width="21" height="22" viewBox="0 0 21 22" fill="none" xmlns="http://www.w3.org/2000/svg">
<path d="M10.501 0C7.64933 0 7.29145 0.0130627 6.17144 0.0664585C5.05362 0.120084 4.29061 0.305479 3.62298 0.5775C2.93237 0.858458 2.34656 1.23429 1.76292 1.84594C1.17886 2.45735 0.820102 3.07106 0.551037 3.79431C0.290722 4.49396 0.113532 5.29352 0.0632193 6.4641C0.013125 7.63744 0 8.01258 0 11C0 13.9874 0.0126878 14.3612 0.0634384 15.5345C0.114845 16.7056 0.291816 17.5049 0.551256 18.2043C0.819665 18.9278 1.17842 19.5415 1.76227 20.1529C2.34568 20.7648 2.9315 21.1415 3.62166 21.4225C4.28973 21.6945 5.05296 21.8799 6.17056 21.9335C7.29058 21.9869 7.64824 22 10.4997 22C13.3515 22 13.7083 21.9869 14.8283 21.9335C15.9462 21.8799 16.71 21.6945 17.3781 21.4225C18.0685 21.1415 18.6534 20.7648 19.2369 20.1529C19.8209 19.5415 20.1797 18.9278 20.4487 18.2045C20.7069 17.5049 20.8841 16.7053 20.9366 15.5348C20.9869 14.3614 21 13.9874 21 11C21 8.01258 20.9869 7.63767 20.9366 6.46433C20.8841 5.29329 20.7069 4.49396 20.4487 3.79454C20.1797 3.07106 19.8209 2.45735 19.2369 1.84594C18.6528 1.23406 18.0687 0.858229 17.3775 0.5775C16.7081 0.305479 15.9446 0.120084 14.8268 0.0664585C13.7068 0.0130627 13.3502 0 10.4977 0H10.501ZM9.55904 1.98229C9.8386 1.98183 10.1505 1.98229 10.501 1.98229C13.3045 1.98229 13.6368 1.99283 14.7439 2.04554C15.7677 2.09458 16.3233 2.27379 16.6934 2.42435C17.1834 2.62373 17.5328 2.86206 17.9001 3.24706C18.2676 3.63206 18.4951 3.99873 18.6858 4.51206C18.8295 4.89935 19.0008 5.48144 19.0474 6.55394C19.0977 7.71352 19.1087 8.06185 19.1087 10.9975C19.1087 13.9331 19.0977 14.2814 19.0474 15.441C19.0006 16.5135 18.8295 17.0956 18.6858 17.4829C18.4955 17.9962 18.2676 18.3618 17.9001 18.7465C17.5326 19.1315 17.1836 19.3699 16.6934 19.5692C16.3237 19.7205 15.7677 19.8992 14.7439 19.9483C13.637 20.001 13.3045 20.0124 10.501 20.0124C7.69724 20.0124 7.36495 20.001 6.25807 19.9483C5.2343 19.8988 4.67867 19.7196 4.30833 19.569C3.81832 19.3696 3.46832 19.1313 3.10081 18.7463C2.73331 18.3613 2.50581 17.9955 2.31506 17.482C2.17134 17.0947 2.00005 16.5126 1.95346 15.4401C1.90314 14.2805 1.89308 13.9322 1.89308 10.9947C1.89308 8.05727 1.90314 7.71077 1.95346 6.55119C2.00027 5.47869 2.17134 4.8966 2.31506 4.50885C2.50537 3.99552 2.73331 3.62885 3.10081 3.24385C3.46832 2.85885 3.81832 2.62052 4.30833 2.42069C4.67845 2.26944 5.2343 2.09069 6.25807 2.04142C7.2267 1.99558 7.60208 1.98183 9.55904 1.97954V1.98229ZM16.1059 3.80875C15.4102 3.80875 14.8458 4.39931 14.8458 5.12829C14.8458 5.85704 15.4102 6.44829 16.1059 6.44829C16.8015 6.44829 17.3659 5.85704 17.3659 5.12829C17.3659 4.39954 16.8015 3.80875 16.1059 3.80875ZM10.501 5.35104C7.52311 5.35104 5.10874 7.88035 5.10874 11C5.10874 14.1196 7.52311 16.6478 10.501 16.6478C13.4789 16.6478 15.8924 14.1196 15.8924 11C15.8924 7.88035 13.4789 5.35104 10.501 5.35104ZM10.501 7.33333C12.4339 7.33333 14.001 8.97485 14.001 11C14.001 13.0249 12.4339 14.6667 10.501 14.6667C8.56787 14.6667 7.00095 13.0249 7.00095 11C7.00095 8.97485 8.56787 7.33333 10.501 7.33333Z" fill="currentColor"/>
</svg>
