<svg width="35" height="35" viewBox="0 0 35 35" fill="none" xmlns="http://www.w3.org/2000/svg">
<path d="M10.2084 32.0833V16.0416M2.91669 18.9583V29.1666C2.91669 30.7775 4.22252 32.0833 5.83335 32.0833H25.4133C27.5727 32.0833 29.4091 30.5078 29.7374 28.3735L31.3079 18.1652C31.7157 15.515 29.6652 13.125 26.9838 13.125H21.875C21.0696 13.125 20.4167 12.472 20.4167 11.6666V6.51264C20.4167 4.52662 18.8067 2.91663 16.8207 2.91663C16.347 2.91663 15.9177 3.1956 15.7253 3.62847L10.5933 15.1756C10.3592 15.7022 9.83694 16.0416 9.26062 16.0416H5.83335C4.22252 16.0416 2.91669 17.3475 2.91669 18.9583Z" stroke="currentColor" stroke-width="2" stroke-linecap="round" stroke-linejoin="round"/>
</svg>
