<svg width="18" height="22" viewBox="0 0 18 22" fill="none" xmlns="http://www.w3.org/2000/svg">
<path d="M18 9.01453C16.1936 9.05746 14.5076 8.45649 13.0624 7.3404V15.0242C13.0624 17.9432 11.3764 20.5188 8.80724 21.549C6.27823 22.5793 3.38793 21.8066 1.62164 19.6173C-0.1848 17.3852 -0.505945 14.2515 0.778633 11.676C2.06321 9.14331 4.71265 7.72674 7.44238 8.11308V11.9764C6.19794 11.5472 4.83308 12.0194 4.07036 13.1355C3.34779 14.2945 3.34779 15.7969 4.11051 16.913C4.87322 18.0291 6.23809 18.5012 7.44238 18.072C8.68681 17.6427 9.52982 16.3979 9.52982 15.0242V0H13.0624C13.0624 0.343411 13.0624 0.643895 13.1427 0.987306C13.3836 2.40387 14.1463 3.64874 15.3104 4.42141C16.0731 4.97945 17.0366 5.27994 18 5.27994V9.01453Z" fill="currentColor"/>
</svg>
